  0
SECTION
  2
HEADER
  9
$ANGBASE
  50
0.0
  9
$ANGDIR
  70
1
  9
$MEASUREMENT
  70
1
  0
ENDSEC
  0
SECTION
  2
TABLES
  0
TABLE
  2
LTYPE
  70
4
  0
LTYPE
  5
40F
  2
CONTINUOUS
  70
0
  3
Solid line
  72
65
  73
0
  40
0.0
  0
LTYPE
  5
410
  2
DASHDOT
 70
0
  3
Dash Dot ____ _ ____ _
 72
65
 73
4
 40
2.0
 49
1.25
 49
-0.25
 49
0.25
 49
-0.25
  0
LTYPE
  5
411
  2
DASHED
 70
0
  3
Dashed __ __ __ __ __
 72
65
 73
2
 40
0.75
 49
0.5
 49
-0.25
  0
LTYPE
  5
43B
  2
DOTTED
 70
0
  3
Dotted .  .  .  .
 72
65
 73
2
 40
0.2
 49
0.0
 49
-0.2
  0
ENDTAB
  0
TABLE
  2
STYLE
  70
4
  0
STYLE
  2
KICAD
  70
0
  40
0
  41
1
  42
1
  50
0
  71
0
  3
isocp.shx
  0
STYLE
  2
KICADB
  70
0
  40
0
  41
1
  42
1
  50
0
  71
0
  3
isocp.shx
  0
STYLE
  2
KICADI
  70
0
  40
0
  41
1
  42
1
  50
15
  71
0
  3
isocp.shx
  0
STYLE
  2
KICADBI
  70
0
  40
0
  41
1
  42
1
  50
15
  71
0
  3
isocp.shx
  0
ENDTAB
  0
TABLE
  2
LAYER
  70
1
  0
LAYER
  2
BLACK
  70
0
  62
7
  6
CONTINUOUS
  0
ENDTAB
  0
ENDSEC
  0
SECTION
  2
ENTITIES
0
LINE
8
BLACK
6
CONTINUOUS
10
107.0999999999999943
20
-42.8999999999999986
11
112.0999999999999943
21
-46.
0
LINE
8
BLACK
6
CONTINUOUS
10
100.0999999999999943
20
-42.8999999999999986
11
95.0999999999999943
21
-46.
0
LINE
8
BLACK
6
CONTINUOUS
10
109.5999999999999943
20
-90.8999999999999915
11
109.5999999999999943
21
-80.8999999999999915
0
LINE
8
BLACK
6
CONTINUOUS
10
97.5999999999999943
20
-80.8999999999999915
11
95.0999999999999943
21
-80.8999999999999915
0
LINE
8
BLACK
6
CONTINUOUS
10
100.0999999999999943
20
-42.8999999999999986
11
107.0999999999999943
21
-42.8999999999999986
0
LINE
8
BLACK
6
CONTINUOUS
10
95.0999999999999943
20
-80.8999999999999915
11
95.0999999999999943
21
-46.
0
LINE
8
BLACK
6
CONTINUOUS
10
109.5999999999999943
20
-90.8999999999999915
11
97.5999999999999943
21
-90.8999999999999915
0
LINE
8
BLACK
6
CONTINUOUS
10
112.0999999999999943
20
-46.
11
112.0999999999999943
21
-80.8999999999999915
0
LINE
8
BLACK
6
CONTINUOUS
10
112.0999999999999943
20
-80.8999999999999915
11
109.5999999999999943
21
-80.8999999999999915
0
LINE
8
BLACK
6
CONTINUOUS
10
97.5999999999999943
20
-90.8999999999999915
11
97.5999999999999943
21
-80.8999999999999915
  0
ENDSEC
  0
EOF
